<mxfile host="app.diagrams.net" modified="2021-10-28T13:19:23.342Z" agent="5.0 (Windows NT 10.0; Win64; x64) AppleWebKit/537.36 (KHTML, like Gecko) Chrome/95.0.4638.54 Safari/537.36" etag="W0S-weiskmGOf1D_V9Ic" version="15.6.1" type="github">
  <diagram id="kbV5J-0Eens3Namjwil5" name="Page-1">
    <mxGraphModel dx="2062" dy="1114" grid="1" gridSize="10" guides="1" tooltips="1" connect="1" arrows="1" fold="1" page="1" pageScale="1" pageWidth="827" pageHeight="1169" math="0" shadow="0">
      <root>
        <mxCell id="0" />
        <mxCell id="1" parent="0" />
        <mxCell id="8XKRnu17fvuqY5pZ1CQ--23" value="" style="edgeStyle=orthogonalEdgeStyle;rounded=0;orthogonalLoop=1;jettySize=auto;html=1;fontFamily=Fira Sans Extra Condensed;fontSource=https%3A%2F%2Ffonts.googleapis.com%2Fcss%3Ffamily%3DFira%2BSans%2BExtra%2BCondensed;fontSize=14;exitX=1;exitY=0.5;exitDx=0;exitDy=0;exitPerimeter=0;sketch=1;" parent="1" source="NScCzU1LjqphaK7JAXmG-1" target="cdFUEFE1KPH4Mwtb7Gst-19" edge="1">
          <mxGeometry relative="1" as="geometry">
            <mxPoint x="342" y="90" as="sourcePoint" />
          </mxGeometry>
        </mxCell>
        <mxCell id="dpYVlMqtqI-mxZW_NwCt-26" style="edgeStyle=orthogonalEdgeStyle;rounded=0;sketch=1;orthogonalLoop=1;jettySize=auto;html=1;exitX=0.25;exitY=1;exitDx=0;exitDy=0;fontFamily=Fira Sans Extra Condensed;fontSource=https%3A%2F%2Ffonts.googleapis.com%2Fcss%3Ffamily%3DFira%2BSans%2BExtra%2BCondensed;fontSize=14;" edge="1" parent="1" source="cdFUEFE1KPH4Mwtb7Gst-19" target="cdFUEFE1KPH4Mwtb7Gst-21">
          <mxGeometry relative="1" as="geometry">
            <Array as="points">
              <mxPoint x="413" y="114" />
            </Array>
          </mxGeometry>
        </mxCell>
        <mxCell id="cdFUEFE1KPH4Mwtb7Gst-19" value="Initialiser résultat comme étant un tableau vide.&lt;br style=&quot;font-size: 14px;&quot;&gt;Initialiser gauche comme étant l&#39;index au début du dictionnaire.&lt;br style=&quot;font-size: 14px;&quot;&gt;Initialiser droite comme étant l&#39;index à la fin du dictionnaire." style="rounded=1;html=1;shadow=0;glass=0;labelBorderColor=none;sketch=1;fontSize=14;strokeColor=#d6b656;strokeWidth=2;fillColor=#fff2cc;align=center;whiteSpace=wrap;spacingLeft=4;fontFamily=Fira Sans Extra Condensed;fontStyle=1;fontSource=https%3A%2F%2Ffonts.googleapis.com%2Fcss%3Ffamily%3DFira%2BSans%2BExtra%2BCondensed;textDirection=ltr;labelPosition=center;verticalLabelPosition=middle;verticalAlign=middle;flipV=0;fillStyle=solid;spacingRight=4;" parent="1" vertex="1">
          <mxGeometry x="340" y="39.379999999999995" width="375" height="75" as="geometry" />
        </mxCell>
        <mxCell id="dpYVlMqtqI-mxZW_NwCt-28" value="" style="edgeStyle=orthogonalEdgeStyle;rounded=0;sketch=1;orthogonalLoop=1;jettySize=auto;html=1;fontFamily=Fira Sans Extra Condensed;fontSource=https%3A%2F%2Ffonts.googleapis.com%2Fcss%3Ffamily%3DFira%2BSans%2BExtra%2BCondensed;fontSize=14;" edge="1" parent="1" source="cdFUEFE1KPH4Mwtb7Gst-21" target="8XKRnu17fvuqY5pZ1CQ--20">
          <mxGeometry relative="1" as="geometry" />
        </mxCell>
        <mxCell id="dpYVlMqtqI-mxZW_NwCt-34" value="Non" style="edgeLabel;html=1;align=center;verticalAlign=middle;resizable=0;points=[];fontSize=14;fontFamily=Fira Sans Extra Condensed;" vertex="1" connectable="0" parent="dpYVlMqtqI-mxZW_NwCt-28">
          <mxGeometry x="-0.0436" y="-1" relative="1" as="geometry">
            <mxPoint y="2" as="offset" />
          </mxGeometry>
        </mxCell>
        <mxCell id="dpYVlMqtqI-mxZW_NwCt-37" style="edgeStyle=orthogonalEdgeStyle;rounded=0;sketch=1;orthogonalLoop=1;jettySize=auto;html=1;exitX=0.5;exitY=1;exitDx=0;exitDy=0;entryX=0.5;entryY=0;entryDx=0;entryDy=0;fontFamily=Fira Sans Extra Condensed;fontSource=https%3A%2F%2Ffonts.googleapis.com%2Fcss%3Ffamily%3DFira%2BSans%2BExtra%2BCondensed;fontSize=14;" edge="1" parent="1" source="cdFUEFE1KPH4Mwtb7Gst-21" target="cdFUEFE1KPH4Mwtb7Gst-22">
          <mxGeometry relative="1" as="geometry" />
        </mxCell>
        <mxCell id="dpYVlMqtqI-mxZW_NwCt-39" value="Oui" style="edgeLabel;html=1;align=center;verticalAlign=middle;resizable=0;points=[];fontSize=14;fontFamily=Fira Sans Extra Condensed;" vertex="1" connectable="0" parent="dpYVlMqtqI-mxZW_NwCt-37">
          <mxGeometry y="-1" relative="1" as="geometry">
            <mxPoint as="offset" />
          </mxGeometry>
        </mxCell>
        <mxCell id="cdFUEFE1KPH4Mwtb7Gst-21" value="droite est-il supérieur&lt;br&gt;ou égale à gauche ?" style="rhombus;whiteSpace=wrap;html=1;rounded=1;shadow=0;glass=0;labelBorderColor=none;sketch=1;fontSize=14;strokeColor=#6c8ebf;strokeWidth=2;fillColor=#dae8fc;align=center;fontFamily=Fira Sans Extra Condensed;fontStyle=1;fontSource=https%3A%2F%2Ffonts.googleapis.com%2Fcss%3Ffamily%3DFira%2BSans%2BExtra%2BCondensed;textDirection=ltr;labelPosition=center;verticalLabelPosition=middle;verticalAlign=middle;flipV=0;fillStyle=solid;spacingBottom=0;" parent="1" vertex="1">
          <mxGeometry x="323.5" y="190" width="180" height="150" as="geometry" />
        </mxCell>
        <mxCell id="dpYVlMqtqI-mxZW_NwCt-38" style="edgeStyle=orthogonalEdgeStyle;rounded=0;sketch=1;orthogonalLoop=1;jettySize=auto;html=1;exitX=0.5;exitY=1;exitDx=0;exitDy=0;entryX=0.5;entryY=0;entryDx=0;entryDy=0;fontFamily=Fira Sans Extra Condensed;fontSource=https%3A%2F%2Ffonts.googleapis.com%2Fcss%3Ffamily%3DFira%2BSans%2BExtra%2BCondensed;fontSize=14;" edge="1" parent="1" source="cdFUEFE1KPH4Mwtb7Gst-22" target="cdFUEFE1KPH4Mwtb7Gst-23">
          <mxGeometry relative="1" as="geometry" />
        </mxCell>
        <mxCell id="cdFUEFE1KPH4Mwtb7Gst-22" value="Calculer le milieu comme&lt;br&gt;étant l&#39;index à égale distance&lt;br&gt;entre gauche et droite" style="rounded=1;whiteSpace=wrap;html=1;shadow=0;glass=0;labelBorderColor=none;sketch=1;fontSize=14;strokeColor=#d6b656;strokeWidth=2;fillColor=#fff2cc;align=center;fontFamily=Fira Sans Extra Condensed;fontStyle=1;fontSource=https%3A%2F%2Ffonts.googleapis.com%2Fcss%3Ffamily%3DFira%2BSans%2BExtra%2BCondensed;textDirection=ltr;labelPosition=center;verticalLabelPosition=middle;verticalAlign=middle;spacingLeft=0;flipV=0;fillStyle=solid;" parent="1" vertex="1">
          <mxGeometry x="325.5" y="400" width="176" height="70" as="geometry" />
        </mxCell>
        <mxCell id="dpYVlMqtqI-mxZW_NwCt-30" value="" style="edgeStyle=orthogonalEdgeStyle;rounded=0;sketch=1;orthogonalLoop=1;jettySize=auto;html=1;fontFamily=Fira Sans Extra Condensed;fontSource=https%3A%2F%2Ffonts.googleapis.com%2Fcss%3Ffamily%3DFira%2BSans%2BExtra%2BCondensed;fontSize=14;" edge="1" parent="1" source="cdFUEFE1KPH4Mwtb7Gst-23" target="dpYVlMqtqI-mxZW_NwCt-16">
          <mxGeometry relative="1" as="geometry" />
        </mxCell>
        <mxCell id="dpYVlMqtqI-mxZW_NwCt-35" value="Oui" style="edgeLabel;html=1;align=center;verticalAlign=middle;resizable=0;points=[];fontSize=14;fontFamily=Fira Sans Extra Condensed;" vertex="1" connectable="0" parent="dpYVlMqtqI-mxZW_NwCt-30">
          <mxGeometry x="-0.054" y="3" relative="1" as="geometry">
            <mxPoint x="-2" y="3" as="offset" />
          </mxGeometry>
        </mxCell>
        <mxCell id="dpYVlMqtqI-mxZW_NwCt-33" style="edgeStyle=orthogonalEdgeStyle;rounded=0;sketch=1;orthogonalLoop=1;jettySize=auto;html=1;exitX=0.5;exitY=1;exitDx=0;exitDy=0;fontFamily=Fira Sans Extra Condensed;fontSource=https%3A%2F%2Ffonts.googleapis.com%2Fcss%3Ffamily%3DFira%2BSans%2BExtra%2BCondensed;fontSize=14;" edge="1" parent="1" source="cdFUEFE1KPH4Mwtb7Gst-23" target="8XKRnu17fvuqY5pZ1CQ--1">
          <mxGeometry relative="1" as="geometry" />
        </mxCell>
        <mxCell id="dpYVlMqtqI-mxZW_NwCt-36" value="Non" style="edgeLabel;html=1;align=center;verticalAlign=middle;resizable=0;points=[];fontSize=14;fontFamily=Fira Sans Extra Condensed;" vertex="1" connectable="0" parent="dpYVlMqtqI-mxZW_NwCt-33">
          <mxGeometry x="-0.0166" relative="1" as="geometry">
            <mxPoint as="offset" />
          </mxGeometry>
        </mxCell>
        <mxCell id="cdFUEFE1KPH4Mwtb7Gst-23" value="L&#39;entrée du milieu&lt;br style=&quot;font-size: 14px&quot;&gt;commence-t-elle par les mêmes &lt;br&gt;lettres que le terme recherché ?" style="rhombus;whiteSpace=wrap;html=1;rounded=1;shadow=0;glass=0;labelBorderColor=none;sketch=1;fontSize=14;strokeColor=#6c8ebf;strokeWidth=2;fillColor=#dae8fc;align=center;fontFamily=Fira Sans Extra Condensed;fontStyle=1;fontSource=https%3A%2F%2Ffonts.googleapis.com%2Fcss%3Ffamily%3DFira%2BSans%2BExtra%2BCondensed;textDirection=ltr;labelPosition=center;verticalLabelPosition=middle;verticalAlign=middle;flipV=0;fillStyle=solid;spacingBottom=15;" parent="1" vertex="1">
          <mxGeometry x="298.5" y="530" width="230" height="160" as="geometry" />
        </mxCell>
        <mxCell id="8XKRnu17fvuqY5pZ1CQ--29" value="" style="edgeStyle=orthogonalEdgeStyle;rounded=0;orthogonalLoop=1;jettySize=auto;html=1;fontFamily=Fira Sans Extra Condensed;fontSource=https%3A%2F%2Ffonts.googleapis.com%2Fcss%3Ffamily%3DFira%2BSans%2BExtra%2BCondensed;fontSize=14;sketch=1;" parent="1" source="8XKRnu17fvuqY5pZ1CQ--1" target="8XKRnu17fvuqY5pZ1CQ--3" edge="1">
          <mxGeometry relative="1" as="geometry" />
        </mxCell>
        <mxCell id="8XKRnu17fvuqY5pZ1CQ--37" value="Non" style="edgeLabel;html=1;align=center;verticalAlign=middle;resizable=0;points=[];fontSize=14;fontFamily=Fira Sans Extra Condensed;fontSource=https%3A%2F%2Ffonts.googleapis.com%2Fcss%3Ffamily%3DFira%2BSans%2BExtra%2BCondensed;" parent="8XKRnu17fvuqY5pZ1CQ--29" vertex="1" connectable="0">
          <mxGeometry x="-0.3236" y="3" relative="1" as="geometry">
            <mxPoint x="10" y="3" as="offset" />
          </mxGeometry>
        </mxCell>
        <mxCell id="8XKRnu17fvuqY5pZ1CQ--30" value="" style="edgeStyle=orthogonalEdgeStyle;rounded=0;orthogonalLoop=1;jettySize=auto;html=1;fontFamily=Fira Sans Extra Condensed;fontSource=https%3A%2F%2Ffonts.googleapis.com%2Fcss%3Ffamily%3DFira%2BSans%2BExtra%2BCondensed;fontSize=14;sketch=1;" parent="1" source="8XKRnu17fvuqY5pZ1CQ--1" target="8XKRnu17fvuqY5pZ1CQ--2" edge="1">
          <mxGeometry relative="1" as="geometry" />
        </mxCell>
        <mxCell id="8XKRnu17fvuqY5pZ1CQ--36" value="Oui" style="edgeLabel;html=1;align=center;verticalAlign=middle;resizable=0;points=[];fontSize=14;fontFamily=Fira Sans Extra Condensed;fontSource=https%3A%2F%2Ffonts.googleapis.com%2Fcss%3Ffamily%3DFira%2BSans%2BExtra%2BCondensed;" parent="8XKRnu17fvuqY5pZ1CQ--30" vertex="1" connectable="0">
          <mxGeometry x="0.2279" relative="1" as="geometry">
            <mxPoint x="13" as="offset" />
          </mxGeometry>
        </mxCell>
        <mxCell id="8XKRnu17fvuqY5pZ1CQ--1" value="Le terme recherché est-il &lt;br&gt;alphabétiquement situé &lt;br&gt;après l&#39;entrée du milieu ?" style="rhombus;whiteSpace=wrap;html=1;rounded=1;shadow=0;glass=0;labelBorderColor=none;sketch=1;fontSize=14;strokeColor=#6c8ebf;strokeWidth=2;fillColor=#dae8fc;align=center;fontFamily=Fira Sans Extra Condensed;fontSource=https%3A%2F%2Ffonts.googleapis.com%2Fcss%3Ffamily%3DFira%2BSans%2BExtra%2BCondensed;horizontal=1;fontStyle=1;flipV=0;fillStyle=solid;" parent="1" vertex="1">
          <mxGeometry x="296" y="840" width="235" height="140" as="geometry" />
        </mxCell>
        <mxCell id="dpYVlMqtqI-mxZW_NwCt-24" style="edgeStyle=orthogonalEdgeStyle;rounded=0;sketch=1;orthogonalLoop=1;jettySize=auto;html=1;exitX=0.5;exitY=0;exitDx=0;exitDy=0;fontFamily=Fira Sans Extra Condensed;fontSource=https%3A%2F%2Ffonts.googleapis.com%2Fcss%3Ffamily%3DFira%2BSans%2BExtra%2BCondensed;fontSize=14;entryX=0.5;entryY=0;entryDx=0;entryDy=0;" edge="1" parent="1" source="8XKRnu17fvuqY5pZ1CQ--2" target="cdFUEFE1KPH4Mwtb7Gst-21">
          <mxGeometry relative="1" as="geometry">
            <mxPoint x="230" y="180" as="targetPoint" />
            <Array as="points">
              <mxPoint x="158" y="910" />
              <mxPoint x="30" y="910" />
              <mxPoint x="30" y="150" />
              <mxPoint x="413" y="150" />
            </Array>
          </mxGeometry>
        </mxCell>
        <mxCell id="8XKRnu17fvuqY5pZ1CQ--2" value="Redéfinir gauche comme étant l&#39;index juste après milieu" style="rounded=1;whiteSpace=wrap;html=1;shadow=0;glass=0;labelBorderColor=none;sketch=1;fontSize=14;strokeColor=#d6b656;strokeWidth=2;fillColor=#fff2cc;align=left;fontFamily=Fira Sans Extra Condensed;fontStyle=1;fontSource=https%3A%2F%2Ffonts.googleapis.com%2Fcss%3Ffamily%3DFira%2BSans%2BExtra%2BCondensed;textDirection=ltr;labelPosition=center;verticalLabelPosition=middle;verticalAlign=middle;spacingLeft=4;fillStyle=solid;" parent="1" vertex="1">
          <mxGeometry x="98" y="877.5" width="120" height="65" as="geometry" />
        </mxCell>
        <mxCell id="dpYVlMqtqI-mxZW_NwCt-25" style="edgeStyle=orthogonalEdgeStyle;rounded=0;sketch=1;orthogonalLoop=1;jettySize=auto;html=1;exitX=1;exitY=0.5;exitDx=0;exitDy=0;entryX=0.5;entryY=0;entryDx=0;entryDy=0;fontFamily=Fira Sans Extra Condensed;fontSource=https%3A%2F%2Ffonts.googleapis.com%2Fcss%3Ffamily%3DFira%2BSans%2BExtra%2BCondensed;fontSize=14;" edge="1" parent="1" source="8XKRnu17fvuqY5pZ1CQ--3" target="cdFUEFE1KPH4Mwtb7Gst-21">
          <mxGeometry relative="1" as="geometry">
            <Array as="points">
              <mxPoint x="800" y="910" />
              <mxPoint x="800" y="150" />
              <mxPoint x="413" y="150" />
            </Array>
          </mxGeometry>
        </mxCell>
        <mxCell id="8XKRnu17fvuqY5pZ1CQ--3" value="Redéfinir droite comme étant l&#39;index juste avant milieu" style="rounded=1;whiteSpace=wrap;html=1;shadow=0;glass=0;labelBorderColor=none;sketch=1;fontSize=14;strokeColor=#d6b656;strokeWidth=2;fillColor=#fff2cc;align=left;fontFamily=Fira Sans Extra Condensed;fontStyle=1;fontSource=https%3A%2F%2Ffonts.googleapis.com%2Fcss%3Ffamily%3DFira%2BSans%2BExtra%2BCondensed;textDirection=ltr;labelPosition=center;verticalLabelPosition=middle;verticalAlign=middle;spacingLeft=4;fillStyle=solid;" parent="1" vertex="1">
          <mxGeometry x="610" y="877.5" width="116" height="65" as="geometry" />
        </mxCell>
        <mxCell id="8XKRnu17fvuqY5pZ1CQ--81" value="dictionnaire" style="shape=table;startSize=40;container=1;collapsible=0;childLayout=tableLayout;fixedRows=1;rowLines=0;fontStyle=1;align=center;pointerEvents=1;rounded=1;shadow=0;glass=0;labelBorderColor=none;sketch=1;fillStyle=solid;fontFamily=Fira Sans Extra Condensed;fontSource=https%3A%2F%2Ffonts.googleapis.com%2Fcss%3Ffamily%3DFira%2BSans%2BExtra%2BCondensed;fontSize=14;strokeColor=#190033;strokeWidth=1;fillColor=#fff2cc;swimlaneFillColor=default;" parent="1" vertex="1">
          <mxGeometry x="328" y="1020" width="170" height="120" as="geometry" />
        </mxCell>
        <mxCell id="8XKRnu17fvuqY5pZ1CQ--82" value="" style="shape=partialRectangle;html=1;whiteSpace=wrap;collapsible=0;dropTarget=0;pointerEvents=1;fillColor=none;top=0;left=0;bottom=1;right=0;points=[[0,0.5],[1,0.5]];portConstraint=eastwest;rounded=1;shadow=0;glass=0;labelBorderColor=none;sketch=1;fillStyle=solid;fontFamily=Fira Sans Extra Condensed;fontSource=https%3A%2F%2Ffonts.googleapis.com%2Fcss%3Ffamily%3DFira%2BSans%2BExtra%2BCondensed;fontSize=14;strokeColor=default;strokeWidth=2;align=center;" parent="8XKRnu17fvuqY5pZ1CQ--81" vertex="1">
          <mxGeometry y="40" width="170" height="30" as="geometry" />
        </mxCell>
        <mxCell id="8XKRnu17fvuqY5pZ1CQ--83" value="0" style="shape=partialRectangle;html=1;whiteSpace=wrap;connectable=0;fillColor=none;top=0;left=0;bottom=0;right=0;overflow=hidden;pointerEvents=1;rounded=1;shadow=0;glass=0;labelBorderColor=none;sketch=1;fillStyle=solid;fontFamily=Fira Sans Extra Condensed;fontSource=https%3A%2F%2Ffonts.googleapis.com%2Fcss%3Ffamily%3DFira%2BSans%2BExtra%2BCondensed;fontSize=14;strokeColor=default;strokeWidth=2;align=center;" parent="8XKRnu17fvuqY5pZ1CQ--82" vertex="1">
          <mxGeometry width="38" height="30" as="geometry">
            <mxRectangle width="38" height="30" as="alternateBounds" />
          </mxGeometry>
        </mxCell>
        <mxCell id="8XKRnu17fvuqY5pZ1CQ--84" value="[&quot;afin&quot;, [26, 15, 30]]" style="shape=partialRectangle;html=1;whiteSpace=wrap;connectable=0;fillColor=none;top=0;left=0;bottom=0;right=0;align=left;spacingLeft=6;overflow=hidden;pointerEvents=1;rounded=1;shadow=0;glass=0;labelBorderColor=none;sketch=1;fillStyle=solid;fontFamily=Fira Sans Extra Condensed;fontSource=https%3A%2F%2Ffonts.googleapis.com%2Fcss%3Ffamily%3DFira%2BSans%2BExtra%2BCondensed;fontSize=14;strokeColor=none;strokeWidth=2;" parent="8XKRnu17fvuqY5pZ1CQ--82" vertex="1">
          <mxGeometry x="38" width="132" height="30" as="geometry">
            <mxRectangle width="132" height="30" as="alternateBounds" />
          </mxGeometry>
        </mxCell>
        <mxCell id="8XKRnu17fvuqY5pZ1CQ--85" value="" style="shape=partialRectangle;html=1;whiteSpace=wrap;collapsible=0;dropTarget=0;pointerEvents=1;fillColor=none;top=0;left=0;bottom=0;right=0;points=[[0,0.5],[1,0.5]];portConstraint=eastwest;rounded=1;shadow=0;glass=0;labelBorderColor=none;sketch=1;fillStyle=solid;fontFamily=Fira Sans Extra Condensed;fontSource=https%3A%2F%2Ffonts.googleapis.com%2Fcss%3Ffamily%3DFira%2BSans%2BExtra%2BCondensed;fontSize=14;strokeColor=default;strokeWidth=2;align=center;" parent="8XKRnu17fvuqY5pZ1CQ--81" vertex="1">
          <mxGeometry y="70" width="170" height="20" as="geometry" />
        </mxCell>
        <mxCell id="8XKRnu17fvuqY5pZ1CQ--86" value="..." style="shape=partialRectangle;html=1;whiteSpace=wrap;connectable=0;fillColor=none;top=0;left=0;bottom=0;right=0;overflow=hidden;pointerEvents=1;rounded=1;shadow=0;glass=0;labelBorderColor=none;sketch=1;fillStyle=solid;fontFamily=Fira Sans Extra Condensed;fontSource=https%3A%2F%2Ffonts.googleapis.com%2Fcss%3Ffamily%3DFira%2BSans%2BExtra%2BCondensed;fontSize=14;strokeColor=default;strokeWidth=2;align=center;" parent="8XKRnu17fvuqY5pZ1CQ--85" vertex="1">
          <mxGeometry width="38" height="20" as="geometry">
            <mxRectangle width="38" height="20" as="alternateBounds" />
          </mxGeometry>
        </mxCell>
        <mxCell id="8XKRnu17fvuqY5pZ1CQ--87" value="..." style="shape=partialRectangle;html=1;whiteSpace=wrap;connectable=0;fillColor=none;top=0;left=0;bottom=0;right=0;align=left;spacingLeft=6;overflow=hidden;pointerEvents=1;rounded=1;shadow=0;glass=0;labelBorderColor=none;sketch=1;fillStyle=solid;fontFamily=Fira Sans Extra Condensed;fontSource=https%3A%2F%2Ffonts.googleapis.com%2Fcss%3Ffamily%3DFira%2BSans%2BExtra%2BCondensed;fontSize=14;strokeColor=default;strokeWidth=2;perimeterSpacing=1;" parent="8XKRnu17fvuqY5pZ1CQ--85" vertex="1">
          <mxGeometry x="38" width="132" height="20" as="geometry">
            <mxRectangle width="132" height="20" as="alternateBounds" />
          </mxGeometry>
        </mxCell>
        <mxCell id="8XKRnu17fvuqY5pZ1CQ--88" value="" style="shape=partialRectangle;html=1;whiteSpace=wrap;collapsible=0;dropTarget=0;pointerEvents=1;fillColor=none;top=0;left=0;bottom=0;right=0;points=[[0,0.5],[1,0.5]];portConstraint=eastwest;rounded=1;shadow=0;glass=0;labelBorderColor=none;sketch=1;fillStyle=solid;fontFamily=Fira Sans Extra Condensed;fontSource=https%3A%2F%2Ffonts.googleapis.com%2Fcss%3Ffamily%3DFira%2BSans%2BExtra%2BCondensed;fontSize=14;strokeColor=default;strokeWidth=2;align=center;" parent="8XKRnu17fvuqY5pZ1CQ--81" vertex="1">
          <mxGeometry y="90" width="170" height="20" as="geometry" />
        </mxCell>
        <mxCell id="8XKRnu17fvuqY5pZ1CQ--89" value="x" style="shape=partialRectangle;html=1;whiteSpace=wrap;connectable=0;fillColor=none;top=0;left=0;bottom=0;right=0;overflow=hidden;pointerEvents=1;rounded=1;shadow=0;glass=0;labelBorderColor=none;sketch=1;fillStyle=solid;fontFamily=Fira Sans Extra Condensed;fontSource=https%3A%2F%2Ffonts.googleapis.com%2Fcss%3Ffamily%3DFira%2BSans%2BExtra%2BCondensed;fontSize=14;strokeColor=default;strokeWidth=2;align=center;" parent="8XKRnu17fvuqY5pZ1CQ--88" vertex="1">
          <mxGeometry width="38" height="20" as="geometry">
            <mxRectangle width="38" height="20" as="alternateBounds" />
          </mxGeometry>
        </mxCell>
        <mxCell id="8XKRnu17fvuqY5pZ1CQ--90" value="[entréeY, [...id]]" style="shape=partialRectangle;html=1;whiteSpace=wrap;connectable=0;fillColor=none;top=0;left=0;bottom=0;right=0;align=left;spacingLeft=6;overflow=hidden;pointerEvents=1;rounded=1;shadow=0;glass=0;labelBorderColor=none;sketch=1;fillStyle=solid;fontFamily=Fira Sans Extra Condensed;fontSource=https%3A%2F%2Ffonts.googleapis.com%2Fcss%3Ffamily%3DFira%2BSans%2BExtra%2BCondensed;fontSize=14;strokeColor=default;strokeWidth=2;" parent="8XKRnu17fvuqY5pZ1CQ--88" vertex="1">
          <mxGeometry x="38" width="132" height="20" as="geometry">
            <mxRectangle width="132" height="20" as="alternateBounds" />
          </mxGeometry>
        </mxCell>
        <mxCell id="NScCzU1LjqphaK7JAXmG-1" value="L&#39;utilisateur rentre au moins&lt;br&gt;3 lettres dans la barre de recherche" style="strokeWidth=2;html=1;shape=mxgraph.flowchart.start_1;whiteSpace=wrap;sketch=1;fontFamily=Fira Sans Extra Condensed;fontSource=https%3A%2F%2Ffonts.googleapis.com%2Fcss%3Ffamily%3DFira%2BSans%2BExtra%2BCondensed;fontStyle=1;fontSize=14;fillColor=#d5e8d4;strokeColor=#82b366;fillStyle=solid;" parent="1" vertex="1">
          <mxGeometry x="32" y="31.880000000000003" width="236" height="90" as="geometry" />
        </mxCell>
        <mxCell id="dpYVlMqtqI-mxZW_NwCt-40" style="edgeStyle=orthogonalEdgeStyle;rounded=0;sketch=1;orthogonalLoop=1;jettySize=auto;html=1;exitX=0.5;exitY=1;exitDx=0;exitDy=0;entryX=0.5;entryY=0;entryDx=0;entryDy=0;fontFamily=Fira Sans Extra Condensed;fontSource=https%3A%2F%2Ffonts.googleapis.com%2Fcss%3Ffamily%3DFira%2BSans%2BExtra%2BCondensed;fontSize=14;" edge="1" parent="1" source="dpYVlMqtqI-mxZW_NwCt-16" target="dpYVlMqtqI-mxZW_NwCt-22">
          <mxGeometry relative="1" as="geometry" />
        </mxCell>
        <mxCell id="dpYVlMqtqI-mxZW_NwCt-16" value="Recherche séquentielle&lt;br&gt;entre l&#39;index du milieu -10 &lt;br&gt;et l&#39;index du milieu +10" style="rounded=1;whiteSpace=wrap;html=1;shadow=0;glass=0;labelBorderColor=none;sketch=1;fontSize=14;strokeColor=#d6b656;strokeWidth=2;fillColor=#fff2cc;align=center;fontFamily=Fira Sans Extra Condensed;fontStyle=1;fontSource=https%3A%2F%2Ffonts.googleapis.com%2Fcss%3Ffamily%3DFira%2BSans%2BExtra%2BCondensed;textDirection=ltr;labelPosition=center;verticalLabelPosition=middle;verticalAlign=middle;spacingLeft=0;flipV=0;fillStyle=solid;" vertex="1" parent="1">
          <mxGeometry x="588" y="580" width="160" height="60" as="geometry" />
        </mxCell>
        <mxCell id="8XKRnu17fvuqY5pZ1CQ--20" value="&lt;b style=&quot;font-size: 14px;&quot;&gt;Retourner résultat&lt;/b&gt;" style="ellipse;whiteSpace=wrap;html=1;rounded=1;shadow=0;glass=0;labelBorderColor=none;sketch=1;fontFamily=Fira Sans Extra Condensed;fontSource=https%3A%2F%2Ffonts.googleapis.com%2Fcss%3Ffamily%3DFira%2BSans%2BExtra%2BCondensed;fontSize=14;strokeColor=#b85450;strokeWidth=2;fillColor=#f8cecc;align=center;fillStyle=solid;" parent="1" vertex="1">
          <mxGeometry x="98" y="234.37" width="120" height="61.25" as="geometry" />
        </mxCell>
        <mxCell id="dpYVlMqtqI-mxZW_NwCt-22" value="&lt;b style=&quot;font-size: 14px;&quot;&gt;Retourner résultat&lt;/b&gt;" style="ellipse;whiteSpace=wrap;html=1;rounded=1;shadow=0;glass=0;labelBorderColor=none;sketch=1;fontFamily=Fira Sans Extra Condensed;fontSource=https%3A%2F%2Ffonts.googleapis.com%2Fcss%3Ffamily%3DFira%2BSans%2BExtra%2BCondensed;fontSize=14;strokeColor=#b85450;strokeWidth=2;fillColor=#f8cecc;align=center;fillStyle=solid;" vertex="1" parent="1">
          <mxGeometry x="608" y="730" width="120" height="61.25" as="geometry" />
        </mxCell>
      </root>
    </mxGraphModel>
  </diagram>
</mxfile>
